<?xml version="1.0" encoding="UTF-8" standalone="no"?>
<!-- Created with Inkscape (http://www.inkscape.org/) -->

<svg
   xmlns:dc="http://purl.org/dc/elements/1.1/"
   xmlns:cc="http://creativecommons.org/ns#"
   xmlns:rdf="http://www.w3.org/1999/02/22-rdf-syntax-ns#"
   xmlns:svg="http://www.w3.org/2000/svg"
   xmlns="http://www.w3.org/2000/svg"
   xmlns:xlink="http://www.w3.org/1999/xlink"
   xmlns:sodipodi="http://sodipodi.sourceforge.net/DTD/sodipodi-0.dtd"
   xmlns:inkscape="http://www.inkscape.org/namespaces/inkscape"
   width="300"
   height="300"
   viewBox="0 0 300 300"
   id="svg2"
   version="1.1"
   inkscape:version="0.91 r13725"
   sodipodi:docname="html_ico.svg">
  <defs
     id="defs4">
    <linearGradient
       inkscape:collect="always"
       id="linearGradient4301">
      <stop
         style="stop-color:#fff3da;stop-opacity:1"
         offset="0"
         id="stop4303" />
      <stop
         style="stop-color:#ffffff;stop-opacity:1"
         offset="1"
         id="stop4305" />
    </linearGradient>
    <linearGradient
       inkscape:collect="always"
       xlink:href="#linearGradient4301"
       id="linearGradient4307"
       x1="140.84285"
       y1="1029.505"
       x2="139.15714"
       y2="765.21936"
       gradientUnits="userSpaceOnUse" />
  </defs>
  <sodipodi:namedview
     id="base"
     pagecolor="#ffffff"
     bordercolor="#666666"
     borderopacity="1.0"
     inkscape:pageopacity="0.0"
     inkscape:pageshadow="2"
     inkscape:zoom="1.4"
     inkscape:cx="-37.889462"
     inkscape:cy="206.47101"
     inkscape:document-units="px"
     inkscape:current-layer="layer1"
     showgrid="false"
     units="px"
     inkscape:window-width="1855"
     inkscape:window-height="1056"
     inkscape:window-x="65"
     inkscape:window-y="24"
     inkscape:window-maximized="1"
     showguides="true"
     inkscape:guide-bbox="true"
     guidetolerance="50" />
  <metadata
     id="metadata7">
    <rdf:RDF>
      <cc:Work
         rdf:about="">
        <dc:format>image/svg+xml</dc:format>
        <dc:type
           rdf:resource="http://purl.org/dc/dcmitype/StillImage" />
        <dc:title />
      </cc:Work>
    </rdf:RDF>
  </metadata>
  <g
     inkscape:label="Calque 1"
     inkscape:groupmode="layer"
     id="layer1"
     transform="translate(0,-752.36214)">
    <rect
       style="fill:#000000;fill-opacity:0.28155338;stroke:none;stroke-width:2.5999999;stroke-miterlimit:4;stroke-dasharray:none;stroke-opacity:0.29126216"
       id="rect4299-3"
       width="230"
       height="264.28571"
       x="40.714287"
       y="774.50494" />
    <rect
       style="fill:url(#linearGradient4307);fill-opacity:1;stroke:#000000;stroke-width:2.5999999;stroke-miterlimit:4;stroke-dasharray:none;stroke-opacity:0.29126215"
       id="rect4299"
       width="230"
       height="264.28571"
       x="32.857143"
       y="765.93359" />
    <rect
       style="fill:#000000;fill-opacity:0.20388351;stroke:none;stroke-width:2.5999999;stroke-miterlimit:4;stroke-dasharray:none;stroke-opacity:0.23300973"
       id="rect4335-6"
       width="215.71429"
       height="80.714294"
       x="67.999985"
       y="814.14783" />
    <rect
       style="fill:#ffffff;fill-opacity:1;stroke:#000000;stroke-width:2.5999999;stroke-miterlimit:4;stroke-dasharray:none;stroke-opacity:0.23300973"
       id="rect4335"
       width="215.71429"
       height="80.714294"
       x="62.142857"
       y="808.79071" />
    <g
       style="font-style:normal;font-weight:normal;font-size:72.30228424px;line-height:125%;font-family:sans-serif;letter-spacing:0px;word-spacing:0px;fill:#000000;fill-opacity:1;stroke:none;stroke-width:1px;stroke-linecap:butt;stroke-linejoin:miter;stroke-opacity:1"
       id="text4337">
      <path
         d="m 125.46211,851.41597 0,23.8654 -6.49591,0 0,-23.65358 q 0,-5.61331 -2.18883,-8.40231 -2.18884,-2.78901 -6.56652,-2.78901 -5.26027,0 -8.2964,3.35387 -3.036136,3.35386 -3.036136,9.1437 l 0,22.34733 -6.531212,0 0,-54.93279 6.531212,0 0,21.53535 q 2.330056,-3.56569 5.472096,-5.33088 3.17735,-1.76519 7.3079,-1.76519 6.81364,0 10.30872,4.23646 3.49508,4.20116 3.49508,12.39165 z"
         style=""
         id="path5039" />
      <path
         d="m 144.91453,824.51444 0,11.22662 13.38016,0 0,5.04845 -13.38016,0 0,21.46474 q 0,4.83663 1.30625,6.21348 1.34154,1.37685 5.40149,1.37685 l 6.67242,0 0,5.43679 -6.67242,0 q -7.51972,0 -10.37934,-2.789 -2.85961,-2.82431 -2.85961,-10.23812 l 0,-21.46474 -4.76602,0 0,-5.04845 4.76602,0 0,-11.22662 6.53121,0 z"
         style=""
         id="path5041" />
      <path
         d="m 197.65848,843.33139 q 2.43597,-4.37768 5.82514,-6.46061 3.38917,-2.08292 7.97867,-2.08292 6.17817,0 9.53204,4.34237 3.35386,4.30707 3.35386,12.28574 l 0,23.8654 -6.53121,0 0,-23.65358 q 0,-5.68392 -2.01232,-8.43762 -2.01232,-2.7537 -6.14287,-2.7537 -5.04845,0 -7.97867,3.35387 -2.93022,3.35386 -2.93022,9.1437 l 0,22.34733 -6.53121,0 0,-23.65358 q 0,-5.71922 -2.01232,-8.43762 -2.01232,-2.7537 -6.21348,-2.7537 -4.97784,0 -7.90806,3.38917 -2.93022,3.35387 -2.93022,9.1084 l 0,22.34733 -6.53121,0 0,-39.54031 6.53121,0 0,6.14287 q 2.22414,-3.6363 5.33088,-5.36618 3.10674,-1.72989 7.37851,-1.72989 4.30707,0 7.30789,2.18884 3.03614,2.18883 4.48359,6.35469 z"
         style=""
         id="path5043" />
      <path
         d="m 237.34002,820.34858 6.49591,0 0,54.93279 -6.49591,0 0,-54.93279 z"
         style=""
         id="path5045" />
    </g>
    <path
       style="fill:none;fill-rule:evenodd;stroke:#000000;stroke-width:9.2;stroke-linecap:butt;stroke-linejoin:miter;stroke-opacity:0.22815534;stroke-miterlimit:4;stroke-dasharray:none"
       d="M 45.714285,914.505 C 240.71428,913.79071 240.71428,913.79071 240.71428,913.79071"
       id="path4341"
       inkscape:connector-curvature="0" />
    <path
       style="fill:none;fill-rule:evenodd;stroke:#000000;stroke-width:7.98247194;stroke-linecap:butt;stroke-linejoin:miter;stroke-miterlimit:4;stroke-dasharray:none;stroke-opacity:0.22815534"
       d="M 46.815059,937.7221 C 192.47065,937.00219 192.47065,937.00219 192.47065,937.00219"
       id="path4341-2"
       inkscape:connector-curvature="0" />
    <path
       style="fill:none;fill-rule:evenodd;stroke:#000000;stroke-width:7.98247194;stroke-linecap:butt;stroke-linejoin:miter;stroke-miterlimit:4;stroke-dasharray:none;stroke-opacity:0.22815534"
       d="M 46.457916,957.00781 C 192.11351,956.2879 192.11351,956.2879 192.11351,956.2879"
       id="path4341-2-1"
       inkscape:connector-curvature="0" />
    <path
       style="fill:none;fill-rule:evenodd;stroke:#000000;stroke-width:7.98247194;stroke-linecap:butt;stroke-linejoin:miter;stroke-miterlimit:4;stroke-dasharray:none;stroke-opacity:0.22815534"
       d="M 47.172203,989.86496 C 192.82779,989.14505 192.82779,989.14505 192.82779,989.14505"
       id="path4341-2-1-2"
       inkscape:connector-curvature="0" />
  </g>
</svg>
